<?xml version="1.0" encoding="utf-8"?>
<!-- Generator: Adobe Illustrator 25.0.1, SVG Export Plug-In . SVG Version: 6.00 Build 0)  -->
<svg version="1.1" id="Layer_1" xmlns="http://www.w3.org/2000/svg" xmlns:xlink="http://www.w3.org/1999/xlink" x="0px" y="0px"
	 viewBox="0 0 589 768.3" style="enable-background:new 0 0 589 768.3;" xml:space="preserve">
<style type="text/css">
	.st0{display:none;}
	.st1{fill:#E44332;}
	.st2{fill:#F69E07;}
	.st3{fill:#53B9E7;}
	.st4{fill:#81B53E;}
	.st5{fill:#7A7C7D;}
	.st6{fill:#FFFFFF;}
</style>
<g id="Layer_2" class="st0">
</g>
<path class="st1" d="M-0.3,266.7h294.7v266.7H-0.3V266.7z"/>
<path class="st2" d="M294.3,0H589v266.7H294.3V0z"/>
<path class="st3" d="M-0.3,0h294.7v266.7H-0.3V0z"/>
<path class="st4" d="M294.3,266.7H589v266.7H294.3V266.7z"/>
<path class="st5" d="M37.5,554.4L0,708.6h34.9l6.3-28.1h34.6l6.3,28.1h36.4L81.3,554.4H37.5z M45.1,653.5l13.1-65.6H59l12.4,65.6
	L45.1,653.5L45.1,653.5z M221.8,687.7c5.2-6.7,9.1-14.7,11.7-24.2c2.5-9.4,3.8-20,3.8-31.6c0-11.9-1.3-22.6-3.8-32.1
	c-2.5-9.5-6.4-17.6-11.7-24.4c-5.2-6.8-11.9-11.9-19.9-15.6c-8.1-3.6-17.6-5.4-28.6-5.4h-43.4v154.2h43.4c11,0,20.6-1.8,28.6-5.4
	C209.9,699.5,216.5,694.4,221.8,687.7L221.8,687.7z M194.2,666.2c-5.3,7.9-12.2,11.9-20.6,11.9h-8.5v-93.2h8.5
	c8.4,0,15.3,4,20.6,11.9c5.3,7.9,7.9,19.6,7.9,35.2C202.2,646.9,199.5,658.3,194.2,666.2L194.2,666.2z M331,639.7
	c2.5-0.9,5-2.3,7.6-4.4c2.6-2,5-4.6,7.1-7.8c2.1-3.2,3.8-7,5.1-11.5c1.3-4.5,1.9-9.6,1.9-15.3c0-15.4-4.1-27-12.4-34.7
	c-8.3-7.8-19.9-11.7-34.8-11.7h-49.3v154.2h33.5v-61.4h10.2l20.6,61.4h36.7L331,639.7L331,639.7z M312.9,617.9
	c-3.7,3.1-8,4.7-13,4.7h-10.2v-39h10.9c2,0,4.1,0.3,6.2,0.8c2.1,0.5,4,1.5,5.8,2.9c1.7,1.5,3.2,3.4,4.2,5.9c1.1,2.5,1.6,5.7,1.6,9.6
	C318.5,609.7,316.6,614.7,312.9,617.9L312.9,617.9z M439.4,554.4h-43.8l-37.5,154.2H393l6.3-28.1h34.6l6.3,28.1h36.4L439.4,554.4
	L439.4,554.4z M403.2,653.5l13.1-65.6h0.9l12.4,65.6L403.2,653.5L403.2,653.5z M589,708.6l-26.3-68.8c2.5-0.9,5-2.3,7.6-4.4
	c2.6-2,5-4.6,7.1-7.8c2.1-3.2,3.8-7,5.1-11.5c1.3-4.5,1.9-9.6,1.9-15.3c0-15.4-4.1-27-12.4-34.7c-8.3-7.8-19.9-11.7-34.8-11.7h-49.3
	v154.2h33.5v-61.4h10.2l20.6,61.4L589,708.6L589,708.6z M544.7,617.9c-3.7,3.1-8,4.7-13,4.7h-10.2v-39h10.9c2,0,4.1,0.3,6.2,0.8
	c2.1,0.5,4,1.5,5.8,2.9c1.7,1.5,3.2,3.4,4.2,5.9c1.1,2.5,1.6,5.7,1.6,9.6C550.2,609.7,548.4,614.7,544.7,617.9L544.7,617.9z
	 M-0.3,765.3h7.6v-19.1h11.4v-6.4H7.2v-12.2h12.4v-6.8H-0.3V765.3L-0.3,765.3z M89.3,726.1c-1.4-2.1-3.1-3.6-5.1-4.7
	c-2-1.1-4.2-1.7-6.7-1.7c-2.5,0-4.8,0.6-6.8,1.7c-2,1.1-3.7,2.7-5.1,4.7c-1.4,2.1-2.4,4.5-3.1,7.4c-0.7,2.8-1.1,6-1.1,9.5
	c0,3.5,0.4,6.7,1.1,9.6c0.7,2.9,1.8,5.3,3.2,7.4c1.4,2.1,3.1,3.6,5,4.8c2,1.1,4.2,1.7,6.7,1.7c2.5,0,4.7-0.6,6.7-1.7
	c2-1.1,3.7-2.7,5.1-4.8c1.4-2.1,2.4-4.5,3.2-7.4c0.7-2.9,1.1-6.1,1.1-9.6c0-3.5-0.4-6.7-1.1-9.5C91.7,730.6,90.7,728.1,89.3,726.1z
	 M85.3,749.3c-0.3,2-0.8,3.7-1.5,5.2c-0.7,1.5-1.5,2.6-2.6,3.5c-1,0.8-2.2,1.3-3.6,1.3c-1.4,0-2.6-0.4-3.6-1.3c-1-0.8-1.9-2-2.6-3.5
	c-0.7-1.5-1.2-3.2-1.5-5.2c-0.3-2-0.5-4.1-0.5-6.4c0-2.3,0.2-4.4,0.5-6.4c0.3-2,0.8-3.7,1.5-5.1c0.7-1.4,1.6-2.6,2.6-3.4
	c1-0.8,2.2-1.3,3.6-1.3c1.3,0,2.5,0.4,3.6,1.3c1,0.8,1.9,2,2.6,3.4c0.7,1.4,1.2,3.2,1.6,5.1c0.4,2,0.5,4.1,0.5,6.4
	C85.8,745.2,85.6,747.4,85.3,749.3z M159,743.6c0.8-0.6,1.6-1.3,2.2-2.2c0.7-0.9,1.2-2,1.7-3.4c0.4-1.3,0.7-2.8,0.7-4.6
	c0-2.2-0.3-4.1-0.9-5.7c-0.6-1.6-1.5-2.9-2.6-3.9c-1.1-1.1-2.4-1.8-4-2.3c-1.5-0.5-3.2-0.7-5.1-0.7h-12.7v44.5h7.3v-19h4.2l6.9,19
	h7.9l-8-20.5C157.4,744.6,158.2,744.2,159,743.6L159,743.6z M154.4,739c-1.2,1.2-2.7,1.7-4.6,1.7h-4.3v-13.7h4.3
	c0.8,0,1.5,0.1,2.3,0.3c0.8,0.2,1.4,0.6,2,1.1c0.6,0.5,1.1,1.2,1.5,2.1c0.4,0.9,0.6,2,0.6,3.3C156.2,736.2,155.6,737.9,154.4,739z
	 M227,753.3h-0.3l-8.5-32.5h-10.1v44.5h6.8l-0.1-34.2h0.2l8.7,34.2h5.9l8.9-34.2h0.2l-0.1,34.2h7.3v-44.5h-10.6L227,753.3L227,753.3
	z M299.3,720.8l-11.1,44.5h7.5l2.3-9.4h11.7l2.2,9.4h7.9l-10.9-44.5H299.3L299.3,720.8z M298.9,749.9l4.8-22.1h0.3l4.7,22.1H298.9
	L298.9,749.9z M356.2,727.2h8.4v38.1h7.4v-38.1h8.4v-6.4h-24.1L356.2,727.2L356.2,727.2z M422.4,765.3h7.5v-44.5h-7.5V765.3z
	 M502.4,726.1c-1.4-2.1-3.1-3.6-5.1-4.7c-2-1.1-4.2-1.7-6.7-1.7c-2.5,0-4.8,0.6-6.8,1.7c-2,1.1-3.7,2.7-5.1,4.7
	c-1.4,2.1-2.4,4.5-3.1,7.4c-0.7,2.8-1.1,6-1.1,9.5c0,3.5,0.4,6.7,1.1,9.6c0.7,2.9,1.8,5.3,3.2,7.4c1.4,2.1,3.1,3.6,5,4.8
	c2,1.1,4.2,1.7,6.7,1.7c2.5,0,4.7-0.6,6.7-1.7c2-1.1,3.7-2.7,5.1-4.8c1.4-2.1,2.4-4.5,3.2-7.4c0.7-2.9,1.1-6.1,1.1-9.6
	c0-3.5-0.4-6.7-1.1-9.5C504.9,730.6,503.8,728.1,502.4,726.1L502.4,726.1z M498.4,749.3c-0.3,2-0.8,3.7-1.5,5.2
	c-0.7,1.5-1.5,2.6-2.6,3.5c-1,0.8-2.2,1.3-3.6,1.3s-2.6-0.4-3.6-1.3c-1-0.8-1.9-2-2.6-3.5c-0.7-1.5-1.2-3.2-1.5-5.2
	c-0.3-2-0.5-4.1-0.5-6.4c0-2.3,0.2-4.4,0.5-6.4c0.3-2,0.8-3.7,1.5-5.1c0.7-1.4,1.5-2.6,2.6-3.4c1-0.8,2.2-1.3,3.6-1.3
	c1.3,0,2.5,0.4,3.6,1.3c1,0.8,1.9,2,2.6,3.4c0.7,1.4,1.2,3.2,1.6,5.1c0.4,2,0.5,4.1,0.5,6.4C498.9,745.2,498.7,747.4,498.4,749.3z
	 M572.7,752.4h-0.2L560,720.8h-8.6v44.5h6.8l-0.1-31.4h0.2l12.6,31.4h8.3v-44.5h-6.5L572.7,752.4L572.7,752.4z"/>
<path class="st6" d="M559.8,266.7h-12c0,50.1-87.2,127.8-243.3,133V133.5c180.8,4,243.3,91.9,243.3,91.9h0.1
	c-18.1-42.4-73.5-112.2-243.3-115.7V80h27.4V59.7h-75.2V80h27.4v29.6c-188.9,1.9-242.1,89-257,132.7c-5.4,16-5.6,33.3-0.7,49.4
	c13.7,44.2,65.3,132,257.7,134.9v29.6h-27.4v20.2h75.2v-20.2h-27.4v-29.6C561.8,422.6,559.8,266.7,559.8,266.7L559.8,266.7z
	 M284.1,400c-164.3-1.2-242.9-87.1-242.9-127.1c0-39.9,53.1-136.9,242.9-139.5V400z"/>
</svg>
