<svg xmlns="http://www.w3.org/2000/svg" viewBox="0 0 221.52 221.51"><defs><style>.cls-1{fill:#d392ff;}.cls-2{fill:none;stroke:#d392ff;stroke-miterlimit:10;stroke-width:10px;}</style></defs><g id="Layer_2" data-name="Layer 2"><g id="Layer_1-2" data-name="Layer 1"><path class="cls-1" d="M174.51,112.16q0,8.58-1,9.39t-14.52.82H137.29q0,18.81,17.92,18.8a36.45,36.45,0,0,0,13.5-2.39l.49-.25c.18,0,.27,0,.32.12s.07,2,.07,5.8c0,4-.3,6.27-.88,6.94q-6.45,3-16.53,3-11,0-17.48-4.73a26.53,26.53,0,0,1-9.4-12.61,48.36,48.36,0,0,1-2.91-16.85q0-14.64,7.13-25T150,84.77q9.08,0,14.44,4.29a24.1,24.1,0,0,1,7.71,10.6A36,36,0,0,1,174.51,112.16Zm-14.26-2.53a19.68,19.68,0,0,0-.89-5.43A11.35,11.35,0,0,0,156.21,99c-1.51-1.44-3.74-2.15-6.69-2.15q-10.72,0-12.1,14.25h21.07C159.66,111.14,160.25,110.63,160.25,109.63Z"/><path class="cls-1" d="M118.74,152.53c0,.42-.33.63-1,.63H104a1.43,1.43,0,0,1-1.14-.63l-6.93-25H69.65q-6.42,25.12-6.75,25.37t-7.12.25q-7.06,0-7.07-.51,0-.12,12-42T72.87,67.37a36,36,0,0,0,.19-4.43.93.93,0,0,1,.89-.75q17.77,0,17.92.26t13.5,45.09Q118.74,152.4,118.74,152.53ZM72.93,114H92.87l-3.22-12.23q-2-7.45-3.85-14.52t-3-12Q80.76,84.78,72.93,114Z"/><path class="cls-2" d="M70.34,208.54A105.58,105.58,0,0,1,5,110.75,105.55,105.55,0,0,1,110.76,5,105.57,105.57,0,0,1,216.52,110.75,105.58,105.58,0,0,1,110.76,216.51,104.66,104.66,0,0,1,70.34,208.54Z"/></g></g></svg>