<svg xmlns="http://www.w3.org/2000/svg" viewBox="0 0 221.51 221.51"><defs><style>.cls-1{fill:#ff7e1b;}.cls-2{fill:none;stroke:#ff7e1b;stroke-miterlimit:10;stroke-width:10px;}</style></defs><g id="Layer_2" data-name="Layer 2"><g id="Layer_1-2" data-name="Layer 1"><path class="cls-1" d="M160.16,88.83V156.2c0,.71-.32,1.07-1,1.07H145.83a.94.94,0,0,1-1.07-1.07l-.11-67.48c0-.56.36-.85,1.07-.85h13.69Q160.16,87.87,160.16,88.83Z"/><path class="cls-1" d="M152.46,60.71q8.55,1,8.55,8.77A8.43,8.43,0,0,1,158.55,76a8.88,8.88,0,0,1-6.31,2.3q-8.66-.44-8.66-8.77A8.34,8.34,0,0,1,146.09,63,9.1,9.1,0,0,1,152.46,60.71Z"/><path class="cls-1" d="M131.93,156.73c0,.36-.22.54-.65.54H117q-1,0-1.17-.54l-7.17-25.87H81.45q-6.95,26.08-7.16,26.25a65.36,65.36,0,0,1-7.27.16,59.88,59.88,0,0,1-7-.16.87.87,0,0,1-.16-.59q0-.32,12.19-42.88Q84.45,70,84.71,68.52a34.18,34.18,0,0,0,.38-4.5c0-.57.18-.85.53-.85q18.61,0,18.82.16T118.29,110Q131.92,156.53,131.93,156.73Zm-26.84-39.67-2.78-11.33Q96.85,85,95,76.75h-.21Q92.47,89.05,85,117.06Z"/><path class="cls-2" d="M70.33,208.54A105.54,105.54,0,0,1,5,110.75,105.54,105.54,0,0,1,110.75,5,105.57,105.57,0,0,1,216.51,110.75,105.58,105.58,0,0,1,110.75,216.51,104.69,104.69,0,0,1,70.33,208.54Z"/></g></g></svg>