<svg xmlns="http://www.w3.org/2000/svg" viewBox="0 0 34.77 31.63"><defs><style>.cls-1{fill:#fff;}</style></defs><g id="Layer_2" data-name="Layer 2"><g id="Layer_1-2" data-name="Layer 1"><g id="Layer_2-2" data-name="Layer 2"><g id="Layer_1-2-2" data-name="Layer 1-2"><path class="cls-1" d="M10.4,9.86H23.92a.47.47,0,0,0,.46-.46.45.45,0,0,0-.46-.46H10.4a.46.46,0,0,0-.47.45h0A.48.48,0,0,0,10.4,9.86Z"/><path class="cls-1" d="M24.38,13.46a.46.46,0,0,0-.46-.46H10.4a.47.47,0,0,0-.47.46.47.47,0,0,0,.46.46H23.92A.46.46,0,0,0,24.38,13.46Z"/><path class="cls-1" d="M34.47,12.32l-5.7-4.17v-1A3.74,3.74,0,0,0,25,3.5H22.4L17.79.13a.72.72,0,0,0-.82,0L12.36,3.5H9.79A3.73,3.73,0,0,0,6,7.15v1L.28,12.32a.75.75,0,0,0-.28.56V30.35a.89.89,0,0,0,.07.28.69.69,0,0,0,.31.92.68.68,0,0,0,.31.08H34.07a.7.7,0,0,0,.7-.69.68.68,0,0,0-.08-.31.55.55,0,0,0,.07-.28V12.88A.7.7,0,0,0,34.47,12.32Zm-5.7-2.45,4.14,3-4,3.08-.14.1ZM17.38,1.55l2.67,2H14.71Zm-10,5.6A2.34,2.34,0,0,1,9.79,4.89H25a2.34,2.34,0,0,1,2.41,2.26v9.94l-5.46,4a.66.66,0,0,0-.26.11l-4.24,3.21L13,21.16h0L7.4,17.09ZM6,9.87V16L1.86,12.89ZM1.4,14.45l10,7.27L1.39,29ZM2.72,30.22l9.87-7.64L17,25.79a.71.71,0,0,0,.83,0l4.23-3.19L32,30.22ZM33.37,29l-10-7.26,10-7.27Z"/></g></g></g></g></svg>