<svg xmlns="http://www.w3.org/2000/svg" viewBox="0 0 221.51 221.51"><defs><style>.cls-1{fill:#eb43a3;}.cls-2{fill:none;stroke:#eb43a3;stroke-miterlimit:10;stroke-width:10px;}</style></defs><g id="Layer_2" data-name="Layer 2"><g id="Layer_1-2" data-name="Layer 1"><path class="cls-1" d="M134.83,97.49q-18.3.06-21,24.81,0,25.14,19.89,25.13a17.16,17.16,0,0,0,6.84-1.17V98.35Q140.59,97.51,134.83,97.49Zm23.62,58.82-1,.21q-13.8,5.88-24.81,5.88-15.51,0-25.61-9.89T97,123.16q0-17,10.43-28.55t28.5-11.55h4.92V57.71q0-.52,8.23-.53h8.45Q157.49,152,158.45,156.31Z"/><path class="cls-1" d="M79.64,57.39q.1.22.11,13,0,89.3-.33,89.77c-.21.32-3,.48-8.44.48q-7.49,0-7.81-.43t-.32-51.43q0-51.22.32-51.44t8.23-.21Q79.53,57.18,79.64,57.39Z"/><path class="cls-2" d="M70.34,208.54A105.58,105.58,0,0,1,5,110.75,105.55,105.55,0,0,1,110.76,5,105.54,105.54,0,0,1,216.51,110.75,105.57,105.57,0,0,1,110.76,216.51,104.66,104.66,0,0,1,70.34,208.54Z"/></g></g></svg>