<svg xmlns="http://www.w3.org/2000/svg" viewBox="0 0 44.24 25.76"><defs><style>.cls-1{fill:#fff;}</style></defs><g id="Layer_2" data-name="Layer 2"><g id="Layer_1-2" data-name="Layer 1"><g id="Layer_2-2" data-name="Layer 2"><g id="Layer_1-2-2" data-name="Layer 1-2"><path class="cls-1" d="M6.08,13.94A1.81,1.81,0,0,0,5,16.78L4.26,21.2a.67.67,0,0,0,.14.53.69.69,0,0,0,.5.23H8a.64.64,0,0,0,.49-.22.62.62,0,0,0,.16-.52L8,16.61a1.87,1.87,0,0,0,.25-.92,1.76,1.76,0,0,0-.86-1.52v-2.4l4,1.75v10a2.26,2.26,0,0,0,2.24,2.24H32a2.24,2.24,0,0,0,2.24-2.24h0V12.91l9.6-4.16a.66.66,0,0,0,.39-.63.63.63,0,0,0-.44-.59L22,0a.66.66,0,0,0-.44,0C14.08,2.91,1.8,7.43.66,7.5A.65.65,0,0,0,0,8a.68.68,0,0,0,.38.73l5.68,2.46Zm-.39,6.72.68-4A.66.66,0,0,0,6.14,16,.51.51,0,0,1,6,15.69a.5.5,0,0,1,1,0,.47.47,0,0,1-.12.32.69.69,0,0,0-.16.52l.57,4.13ZM33,23.53a.94.94,0,0,1-.94.93H13.65a.93.93,0,0,1-.93-.93h0V14.09l9.16,4a1.13,1.13,0,0,0,.26,0,1.13,1.13,0,0,0,.26,0L33,13.48ZM2.64,8.3C7.36,6.82,18.7,2.56,21.8,1.39l20,6.83L22.14,16.76l-13-5.64,11-1.45a4,4,0,0,0,2,.48c1.51,0,2.66-.6,2.66-1.4s-1.15-1.4-2.66-1.4c-1.3,0-2.33.45-2.59,1.08L6.82,10.11Zm17.5.45c0-.31.78-.75,2-.75s2,.44,2,.75-.78.75-2,.75S20.14,9,20.14,8.75Z"/></g></g></g></g></svg>