<svg xmlns="http://www.w3.org/2000/svg" viewBox="0 0 31.39 33.53"><defs><style>.cls-1{fill:#fff;}</style></defs><g id="Layer_2" data-name="Layer 2"><g id="Layer_1-2" data-name="Layer 1"><g id="Layer_2-2" data-name="Layer 2"><g id="Layer_1-2-2" data-name="Layer 1-2"><path class="cls-1" d="M29.13,18.75c-1.91-1.64-4.76-2.34-8.46-2.08A9.13,9.13,0,1,0,10,16.41c-2.67-.26-8.3-.06-10,5.87a.61.61,0,0,0,0,.19V32.84a.69.69,0,0,0,.69.69h30a.69.69,0,0,0,.69-.69V22.92A6.39,6.39,0,0,0,29.13,18.75ZM7.71,9.12A7.83,7.83,0,1,1,15.57,17H15.5A7.85,7.85,0,0,1,7.71,9.12ZM15.4,19.73h.67l1,2L15.71,24.4l-1-2Zm-.82-1.39a.47.47,0,0,1,.46-.47h1.32a.47.47,0,0,1,.13.93H15A.47.47,0,0,1,14.58,18.34ZM17,19.56a1.41,1.41,0,0,0,.74-1.22,2,2,0,0,0,0-.35,9.06,9.06,0,0,0,1.59-.55l-1.7,3.3Zm-2.53,0-.41,1.58-1.8-3.54a8.48,8.48,0,0,0,1.41.42,1.31,1.31,0,0,0,0,.28,1.36,1.36,0,0,0,.8,1.3ZM30,32.15H1.4V22.57c1.73-5.79,8-4.94,9.45-4.65l4.23,8.32a.71.71,0,0,0,.62.38h0a.71.71,0,0,0,.62-.38l4.21-8.17c3.42-.28,6,.3,7.68,1.71A5.09,5.09,0,0,1,30,23Z"/></g></g></g></g></svg>