<svg xmlns="http://www.w3.org/2000/svg" viewBox="0 0 27.48 27.8"><defs><style>.cls-1{fill:none;stroke:#000;stroke-linecap:round;stroke-linejoin:round;stroke-width:1.3px;}</style></defs><g id="Layer_2" data-name="Layer 2"><g id="Layer_2-2" data-name="Layer 2"><path class="cls-1" d="M25.09,17.3c.55,1.13.38,1.6-.17,2.25s-4.13,1.85-7,2.39a6.47,6.47,0,0,1,1.88-5.54c-2.65.83-5.81,2.79-9,4.77H7.37C7,21.46.13,16,.68,15.12H5a6.78,6.78,0,0,1-3.25-4.53C1,7.25,5.59.52,13,.65S23.47,9.88,23.47,9.88"/><path class="cls-1" d="M23.47,9.88A15.45,15.45,0,0,0,16.56,12,29.28,29.28,0,0,0,10,17.77L8.78,16,5,15.12c.5,3.14,1.79,5.08,3.75,6"/><path class="cls-1" d="M25.09,17.3c-.64-.9-.69-2.17-5.28-.9"/><path class="cls-1" d="M3.75,21.22c1.49,2.51,6.35,4.71,10.73,5.92,0,.19,1-2.82,1.28-3.28.11-.22,4.73.81,4.73.81V21.34L18,21.93a2,2,0,0,1-.19-.71Z"/><line class="cls-1" x1="16.14" y1="23.85" x2="16.14" y2="21.22"/><circle class="cls-1" cx="14.48" cy="8.78" r="2.36"/><path class="cls-1" d="M19.41,10.68a18.62,18.62,0,0,1,5.83-.82s3.47,5.14.15,8"/></g></g></svg>