<svg xmlns="http://www.w3.org/2000/svg" viewBox="0 0 221.52 221.51"><defs><style>.cls-1{fill:#37c5ff;}.cls-2{fill:none;stroke:#37c5ff;stroke-miterlimit:10;stroke-width:10px;}</style></defs><g id="Layer_2" data-name="Layer 2"><g id="Layer_1-2" data-name="Layer 1"><path class="cls-1" d="M159.52,119.52q4.17,3.86,4.17,10.91a17.5,17.5,0,0,1-5.88,13.15Q151.93,149,140.48,149q-10.26,0-16.36-4.71a21.74,21.74,0,0,1-8-12.51l13.69-2.25a11.3,11.3,0,0,0,3.42,6.53q2.56,2.24,7.49,2.24,5.13,0,7.81-2.14a4.83,4.83,0,0,0,1.6-3.85,4.64,4.64,0,0,0-.86-2.78,12.2,12.2,0,0,0-4.38-1.92q-16.37-4-20.75-7.27-6-4.39-6-12.41a16,16,0,0,1,5.13-12q5.24-5,16.15-5,10.58,0,15.5,3.74,5.13,3.65,7.06,11l-12.73,2.56a8.35,8.35,0,0,0-3-4.92,10.65,10.65,0,0,0-6.63-1.81c-3.5,0-6,.57-7.49,1.71a3.29,3.29,0,0,0-1.49,3,3.22,3.22,0,0,0,1.28,2.57q1.81,1.5,12.4,4.17Q155.23,115.57,159.52,119.52Z"/><path class="cls-1" d="M107.44,79.85q4.17,5.78,4.17,14.86a28.09,28.09,0,0,1-2.24,11.87,20.73,20.73,0,0,1-6,7.7,22.41,22.41,0,0,1-7.49,3.53,73.78,73.78,0,0,1-14.54,1.07h-9.3v28.87H57.93V71.3H80.49q13,0,16.9,1.06A18.4,18.4,0,0,1,107.44,79.85Zm-12,21.07a11.19,11.19,0,0,0,1.71-6.1,10.08,10.08,0,0,0-8.24-10q-2.46-.64-10-.64H72.05v21.7h7.7q8.44,0,11.22-1.06A11.87,11.87,0,0,0,95.47,100.92Z"/><path class="cls-2" d="M70.34,208.54A105.58,105.58,0,0,1,5,110.75,105.55,105.55,0,0,1,110.76,5,105.57,105.57,0,0,1,216.52,110.75,105.58,105.58,0,0,1,110.76,216.51,104.66,104.66,0,0,1,70.34,208.54Z"/></g></g></svg>