<svg xmlns="http://www.w3.org/2000/svg" viewBox="0 0 221.51 221.51"><defs><style>.cls-1{fill:#ff2bc2;}.cls-2{fill:none;stroke:#ff2bc2;stroke-miterlimit:10;stroke-width:10px;}</style></defs><g id="Layer_2" data-name="Layer 2"><g id="Layer_1-2" data-name="Layer 1"><path class="cls-1" d="M170.45,144.35a1.73,1.73,0,0,1-.06.54c0,.13-.18.23-.42.31a50.33,50.33,0,0,1-20.68,4.69q-13.22,0-21.69-8.12t-8.48-24.57q0-14.19,8.6-23.93t23.5-9.74q1.32,0,2.1.06l2.11.18v-21a1,1,0,0,1,.18-.61.63.63,0,0,1,.54-.23h13.1a.89.89,0,0,1,.66.18.7.7,0,0,1,.18.54v73.81Q170.09,139.79,170.45,144.35Zm-15.14-7.92.12-40a11.76,11.76,0,0,0-4.7-.84q-17.05,1.31-17.06,20.9,0,11.19,4.63,16.06a15,15,0,0,0,11.35,4.86A16.53,16.53,0,0,0,155.31,136.43Z"/><path class="cls-1" d="M114.31,147.84a1.53,1.53,0,0,1,.12,1c-.07.28-.32.43-.72.43H99.78a1.94,1.94,0,0,1-1.15-.3,1.39,1.39,0,0,1-.54-.79Q90.38,132.09,82.22,115H82.1q-7.56,16.71-15.51,33.29A1.7,1.7,0,0,1,65,149H51.81c-.41,0-.64-.11-.72-.36a.69.69,0,0,1,.24-.72l22.12-42.55L52,63.1a.8.8,0,0,1,.61-1.33H66.47a2.1,2.1,0,0,1,1,.18,1.17,1.17,0,0,1,.43.79q2,4.2,4.08,8.53,5.64,11.66,11.06,23.57h.12q5.28-11.67,10.71-23.33c1.36-3,2.75-5.85,4.2-8.66v-.11a1.52,1.52,0,0,1,.42-.66,1.22,1.22,0,0,1,.89-.31h13c.73,0,.92.44.61,1.33L91.59,104Z"/><path class="cls-2" d="M70.34,208.54A105.58,105.58,0,0,1,5,110.75,105.55,105.55,0,0,1,110.76,5,105.54,105.54,0,0,1,216.51,110.75,105.57,105.57,0,0,1,110.76,216.51,104.66,104.66,0,0,1,70.34,208.54Z"/></g></g></svg>